<?xml version="1.0" standalone="no"?>
<!DOCTYPE svg PUBLIC "-//W3C//DTD SVG 1.1//EN"
  "http://www.w3.org/Graphics/SVG/1.1/DTD/svg11.dtd">
<svg width="8.114100217819214mm" height="8.114100228995083mm" viewBox="-2.0570499897003174 -7.057050228118895 8.114100217819214 8.114100228995083" xmlns="http://www.w3.org/2000/svg" version="1.1">
	<title>svgOutput</title>
	<desc>made with tinkercad</desc>
<path d="M 4.425135612487793 -4.861443042755126 L 4.425282001495361 -4.861223697662353 L 4.647207260131836 -4.528335571289062 L 4.731249809265137 -4.358356952667235 L 4.824464321136475 -4.169442653656005 L 4.849255084991455 -4.09600019454956 L 4.885035514831543 -3.9900000095367423 L 4.9527716636657715 -3.7911429405212393 L 4.953659534454346 -3.7867014408111563 L 4.989871501922607 -3.6056427955627433 L 5.030885696411133 -3.3993284702301017 L 5.0433783531188965 -3.21004295349121 L 5.052363395690918 -3.07200002670288 L 5.0570502281188965 -2.999999999999999 L 5.044557094573975 -2.810714244842529 L 5.030885696411133 -2.600671529769897 L 5.030600070953369 -2.5992431640624996 L 4.993785858154297 -2.415171384811401 L 4.9527716636657715 -2.2088570594787593 L 4.9521613121032715 -2.2070500850677486 L 4.898473739624023 -2.04800009727478 L 4.892199993133545 -2.0294141769409175 L 4.824464321136475 -1.8305571079254146 L 4.740421295166016 -1.660578608512878 L 4.647207260131836 -1.4716643095016475 L 4.646467685699463 -1.4705553054809566 L 4.425135612487793 -1.1385571956634517 L 4.300207138061523 -0.9962142705917355 L 4.161628723144531 -0.8383714556694027 L 4.0960001945495605 -0.7807719111442563 L 4.019285678863525 -0.7134428620338438 L 3.861442804336548 -0.5748642683029173 L 3.8612234592437744 -0.5747180581092832 L 3.5283358097076416 -0.35279285907745345 L 3.3583571910858154 -0.2687500119209288 L 3.169442892074585 -0.17553570866584764 L 2.990000009536743 -0.11496428400278078 L 2.7911429405212402 -0.047228571027517194 L 2.7867014408111572 -0.04634027183055866 L 2.605642795562744 -0.01012857165187586 L 2.5546929836273193 1.1102230246251565e-16 L 2.3993284702301025 0.03088571503758441 L 2.210042953491211 0.0433785729110242 L 2.0480000972747803 0.05392574146389971 L 2 0.057050000876188375 L 1.8107142448425293 0.04455714300274859 L 1.600671410560608 0.03088571503758441 L 1.5992430448532104 0.030600043013692006 L 1.4462428092956543 1.1102230246251565e-16 L 1.4151713848114014 -0.00621428573504079 L 1.2088571786880493 -0.047228571027517194 L 1.207050085067749 -0.04783856123685824 L 1.0294142961502075 -0.10779999941587434 L 0.8305571675300598 -0.17553570866584764 L 0.6605785489082336 -0.25957858562469466 L 0.47166427969932556 -0.35279285907745345 L 0.4705553650856018 -0.3535321354866026 L 0.13855713605880737 -0.5748642683029173 L 0 -0.696470260620117 L -0.0037857142742723227 -0.6997928619384763 L -0.1616285741329193 -0.8383714556694027 L -0.286557137966156 -0.9807142615318295 L -0.3245599567890167 -1.0240000486373897 L -0.42513570189476013 -1.1385571956634517 L -0.42528194189071655 -1.1387764215469356 L -0.6472071409225464 -1.4716643095016475 L -0.731249988079071 -1.6416428089141841 L -0.8244642615318298 -1.8305571079254146 L -0.8850356936454773 -2.0099999904632564 L -0.8979794383049011 -2.04800009727478 L -0.9527714252471924 -2.2088570594787593 L -0.9898714423179626 -2.3943572044372554 L -1.0308856964111328 -2.600671529769897 L -1.0433785915374756 -2.7899570465087886 L -1.0570499897003174 -2.999999999999999 L -1.0522979497909546 -3.07200002670288 L -1.0445570945739746 -3.18928575515747 L -1.0308856964111328 -3.3993284702301017 L -1.0306000709533691 -3.400756835937499 L -0.9937857389450073 -3.5848286151885977 L -0.9527714252471924 -3.7911429405212393 L -0.952161431312561 -3.79294991493225 L -0.8921999931335449 -3.970585823059081 L -0.8494807481765747 -4.09600019454956 L -0.8244642615318298 -4.169442653656005 L -0.7404214143753052 -4.339421272277831 L -0.6472071409225464 -4.528335571289062 L -0.6464678645133972 -4.529444694519042 L -0.42513570189476013 -4.861443042755126 L -0.30020713806152344 -5.003785610198974 L -0.1616285741329193 -5.16162872314453 L -0.019285714253783226 -5.2865571975708 L 0 -5.303489208221435 L 0.13855713605880737 -5.425135612487792 L 0.13877646625041962 -5.42528200149536 L 0.47166427969932556 -5.647207260131835 L 0.6416428685188293 -5.731249809265136 L 0.8305571675300598 -5.824464321136474 L 1.0099999904632568 -5.885035514831542 L 1.2088571786880493 -5.952771663665771 L 1.2132986783981323 -5.953659534454345 L 1.3943570852279663 -5.9898715019226065 L 1.600671410560608 -6.030885696411131 L 1.7899571657180786 -6.043378353118895 L 2 -6.057050228118895 L 2.0480000972747803 -6.053882122039793 L 2.1892857551574707 -6.044557094573973 L 2.3993284702301025 -6.030885696411131 L 2.4007568359375 -6.030600070953367 L 2.5848286151885986 -5.993785858154296 L 2.7911429405212402 -5.952771663665771 L 2.792949914932251 -5.952161312103271 L 2.970585823059082 -5.892199993133544 L 3.169442892074585 -5.824464321136474 L 3.339421510696411 -5.740421295166015 L 3.5283358097076416 -5.647207260131835 L 3.529444694519043 -5.646467685699462 L 3.861442804336548 -5.425135612487792 L 4.003785610198975 -5.3002071380615225 L 4.0960001945495605 -5.219247341156005 L 4.161628723144531 -5.16162872314453 L 4.286557197570801 -5.0192856788635245 L 4.425135612487793 -4.861443042755126 z" fill="none" stroke="rgb(255,0,0)" stroke-width="0.001mm" />
</svg>